<svg width="100%" height="auto" viewBox="0 0 989 795" fill="none" xmlns="http://www.w3.org/2000/svg">
<path d="M151.099 180.707C112.6 225.12 66.6662 262.451 15.367 291.021C10.7313 293.568 6.86089 297.314 4.15833 301.87C1.45577 306.426 0.0198546 311.625 0 316.926V416.146L5.62899 443.725L97.2685 379.83L151.099 180.707Z" fill="#346B99"/>
<path d="M0 416.137C0 416.137 58.95 375.305 109.676 256.622C109.676 256.622 185.182 55.4233 392.54 12.4691C392.54 12.4691 483.704 -16.0173 595.638 13.1229C651.154 27.1402 700.872 58.306 737.763 102.214C753.757 120.991 766.185 142.55 774.431 165.821C775.277 168.279 775.369 170.936 774.695 173.447C774.021 175.958 772.612 178.21 770.65 179.91C768.689 181.611 766.264 182.683 763.689 182.989C761.114 183.294 758.507 182.819 756.204 181.624C739.901 172.796 716.489 167.06 687.948 179.313L521.012 245.315L524.442 693.617L0 734.749V416.137Z" fill="#EEFAFF"/>
<path d="M360.975 528.75C354.119 520.7 345.037 514.87 334.878 511.996C324.718 509.122 313.937 509.333 303.898 512.603C294.732 514.898 286.432 519.822 280.013 526.773C195.47 626.207 79.6431 669.307 0 679.877V714.139L6.74738 734.219L360.975 706.433V528.75Z" fill="#96C1D6"/>
<path d="M371.124 294.504C371.124 294.504 283.776 303.654 235.497 376.641C232.976 380.485 231.538 384.941 231.338 389.538C231.138 394.135 232.182 398.7 234.36 402.75C236.538 406.799 239.768 410.182 243.708 412.539C247.647 414.896 252.15 416.139 256.737 416.137H382.404L371.124 294.504Z" fill="#96C1D6"/>
<path d="M687.939 179.325C687.939 179.325 589.15 218.059 549.222 350.683C538.464 385.451 537.982 422.601 547.835 457.638C561.707 505.488 599.098 562.244 695.802 584.734L524.445 693.629C524.445 693.629 287.752 668.22 331.947 354.969C336.976 319.315 348.803 263.139 368.094 232.765C418.705 175.715 519.709 176.031 559.192 187.4C567.808 189.879 614.802 155.896 625.955 152.413C643.435 146.95 656.692 150.154 670.134 162.638C675.593 167.683 685.313 170.106 687.939 179.325Z" fill="#6295D3"/>
<path d="M599.732 192.823C623.144 177.264 642.607 183.864 657.313 196.696C666.904 189.877 677.166 184.063 687.939 179.343C685.632 171.217 681.114 163.895 674.892 158.198C668.167 152.203 659.986 148.091 651.173 146.276C642.359 144.461 633.225 145.006 624.688 147.858C614.417 151.268 604.603 155.933 595.468 161.749C584.649 168.601 571.61 170.998 559.071 168.439C546.532 165.88 535.463 158.563 528.174 148.016C527.33 146.776 526.604 145.58 525.983 144.502C525.596 143.817 525.063 143.226 524.424 142.77C523.784 142.313 523.053 142.003 522.281 141.86C521.509 141.718 520.715 141.746 519.955 141.944C519.196 142.142 518.488 142.504 517.883 143.005L500.251 157.653C490.519 165.731 478.282 170.151 465.649 170.153H456.647C440.754 170.08 425.257 175.121 412.433 184.537C394.732 197.809 379.635 214.254 367.905 233.041C387.087 219.317 410.496 208.394 436.139 208.905C436.139 208.905 476.373 226.317 507.586 192.829C507.598 192.823 544.31 229.66 599.732 192.823Z" fill="#346B99"/>
<path d="M326.475 426.329C326.2 472.143 317.664 526.417 328.752 557.946L524.432 693.62L695.789 584.725C676.517 580.39 657.801 573.861 640.006 565.265C613.792 593.621 548.644 593.597 548.644 593.597C381.696 543.295 416.703 378.81 416.703 378.81C416.703 378.81 363.209 405.778 326.475 426.329Z" fill="#346B99"/>
<path d="M207.627 428.631C207.627 428.631 265.907 325.051 393.427 342.692C398.265 343.299 402.879 345.096 406.857 347.925C410.835 350.753 414.054 354.523 416.227 358.901C421.708 370.456 420.568 387.657 386.72 405.939C386.72 405.939 408.006 451.323 351.985 470.77C351.985 470.77 367.927 490.993 354.339 522.438C354.339 522.438 334.876 554.284 305.912 575.243L274.399 533.237L207.627 428.631Z" fill="#EEFAFF"/>
<path d="M303.505 578.825C332.472 557.862 347.326 538.657 354.333 522.429C347.443 516.642 339.202 512.705 330.38 510.985C321.559 509.265 312.447 509.82 303.898 512.597C294.92 515.334 286.729 520.194 280.013 526.767C278 528.792 276.127 530.952 274.406 533.231L303.505 578.825Z" fill="#96C1D6"/>
<path d="M649.361 348.111C644.85 352.431 641.686 357.972 640.254 364.061C638.822 370.149 639.184 376.524 641.294 382.411C642.895 386.785 645.155 390.888 647.995 394.576C666.68 418.808 705.376 404.969 705.441 374.335C705.441 373.973 705.441 373.607 705.441 373.235C705.401 367.721 703.98 362.304 701.307 357.485C700.915 356.778 700.488 356.028 700.031 355.241C697.559 350.964 694.149 347.306 690.059 344.546C685.97 341.785 681.308 339.993 676.426 339.306C671.545 338.619 666.571 339.055 661.882 340.581C657.193 342.106 652.911 344.681 649.361 348.111Z" fill="#6295D3"/>
<path d="M517.262 510.88C514.732 505.247 512.365 499.436 510.227 493.617C509.094 490.532 506.786 488.025 503.811 486.648C500.835 485.27 497.435 485.134 494.36 486.27C491.284 487.406 488.785 489.721 487.411 492.706C486.037 495.691 485.902 499.1 487.035 502.185C489.37 508.547 491.959 514.89 494.727 521.059C512.353 560.307 554.632 609.165 611.58 638.237L636.333 622.508C574.194 595.905 531.696 543.035 517.262 510.88Z" fill="#346B99"/>
<path d="M881.212 364.686C893.201 364.686 902.919 354.939 902.919 342.915C902.919 330.891 893.201 321.143 881.212 321.143C869.224 321.143 859.506 330.891 859.506 342.915C859.506 354.939 869.224 364.686 881.212 364.686Z" fill="#6295D3"/>
<path d="M798.782 525.497C835.003 545.201 899.372 577.731 944.843 595.973L979.136 611.015L988.627 656.023V794.985H944.843L460.082 773.56L461.2 658.288C461.2 658.288 629.372 648.992 751.94 531.719C757.904 525.535 765.777 521.556 774.281 520.426C782.785 519.296 791.419 521.083 798.782 525.497Z" fill="#346B99"/>
<path d="M946.919 590.792C901.442 572.547 838.031 539.1 801.816 519.398C793.838 515.074 784.696 513.402 775.709 514.623C766.723 515.845 758.354 519.896 751.81 526.194C629.242 643.495 461.21 649.355 461.21 649.355L452.942 794.994H633.648C639.424 777.436 643.114 759.256 644.643 740.832C645.405 732.192 646.718 723.611 648.573 715.14C650.679 705.838 654.663 697.067 660.28 689.37C665.897 681.672 673.027 675.21 681.231 670.384C689.434 665.557 698.536 662.468 707.976 661.307C717.416 660.146 726.993 660.938 736.116 663.634L840.095 694.196C841.547 694.623 843.102 694.535 844.498 693.946C845.893 693.357 847.043 692.304 847.754 690.963C848.465 689.623 848.693 688.077 848.399 686.588C848.106 685.098 847.309 683.756 846.144 682.787C828.061 667.829 806.414 650.982 789.724 638.202C786.537 635.756 783.945 632.616 782.143 629.019C780.341 625.422 779.376 621.462 779.321 617.437C779.265 613.412 780.121 609.427 781.824 605.781C783.526 602.136 786.031 598.926 789.15 596.392L789.672 595.967C793.652 592.685 798.537 590.703 803.673 590.285C808.808 589.868 813.949 591.035 818.404 593.631C864.196 620.518 949.567 645.438 988.651 656.032V600.132C972.472 603.246 946.919 590.792 946.919 590.792Z" fill="#EEFAFF"/>
<path d="M644.634 740.828C645.396 732.189 646.709 723.608 648.564 715.137C650.502 706.449 654.095 698.218 659.145 690.896C614.351 676.732 570.516 659.679 527.914 639.845C505.963 644.786 483.655 647.968 461.2 649.361L452.933 795H633.648C639.421 777.439 643.109 759.256 644.634 740.828Z" fill="#96C1D6"/>
<path d="M353.069 567.645C418.201 624.37 600.297 745.728 944.843 794.985C856.824 791.291 764.944 786.649 725.85 794.985H417.077C381.57 787.885 348.278 786.373 318.996 794.985H136.409L9.48773 789.097L0 721.728C0 721.728 164.582 699.916 299.334 569.718C315.14 554.445 336.498 553.211 353.069 567.645Z" fill="#6295D3"/>
<path d="M299.718 651.849C306.001 647.117 312.524 642.712 319.258 638.652C326.737 634.175 335.399 632.092 344.088 632.68C352.778 633.269 361.082 636.501 367.893 641.946C481.158 731.566 645.635 777.021 725.85 794.984H944.843C600.297 745.715 420.627 618.538 355.495 561.813C347.515 554.83 337.218 551.095 326.631 551.342C316.043 551.589 305.931 555.801 298.284 563.149C163.531 693.35 0 714.139 0 714.139V794.984H136.393C148.467 759.774 164.464 741.067 178.796 731.247C186.225 726.221 195.124 723.849 204.061 724.513C212.997 725.177 221.451 728.838 228.061 734.907C254.188 758.55 288.775 779.286 318.996 794.984H417.077C374.76 774.585 334.959 749.306 298.479 719.661C293.394 715.557 289.314 710.34 286.549 704.411C283.785 698.481 282.409 691.996 282.529 685.451C282.649 678.906 284.26 672.475 287.239 666.651C290.218 660.827 294.487 655.764 299.718 651.849Z" fill="#EEFAFF"/>
<path d="M183.112 495.383C181.556 495.372 180.005 495.214 178.478 494.912C176.948 494.604 175.452 494.142 174.014 493.533C172.571 492.942 171.194 492.202 169.905 491.324C167.274 489.638 165.04 487.399 163.358 484.761C161.622 482.153 160.409 479.231 159.784 476.159C159.156 473.092 159.156 469.93 159.784 466.863C160.088 465.327 160.547 463.827 161.155 462.385C161.746 460.939 162.484 459.558 163.358 458.264C164.212 456.961 165.189 455.742 166.275 454.626C169.058 451.869 172.47 449.836 176.214 448.702C179.959 447.568 183.923 447.367 187.762 448.119C189.292 448.404 190.789 448.846 192.229 449.439C193.655 450.064 195.028 450.803 196.335 451.648C197.636 452.526 198.852 453.525 199.965 454.632C201.053 455.763 202.048 456.979 202.94 458.27C203.795 459.566 204.515 460.947 205.087 462.391C205.694 463.833 206.153 465.334 206.456 466.869C207.088 469.935 207.088 473.099 206.456 476.165C206.152 477.7 205.694 479.201 205.087 480.643C204.514 482.087 203.794 483.469 202.94 484.767C202.048 486.058 201.053 487.275 199.965 488.405C195.483 492.867 189.427 495.375 183.112 495.383Z" fill="#5C91C4"/>
<path d="M747 268.14C746.18 268.136 745.363 268.053 744.559 267.892C743.776 267.73 743.011 267.492 742.273 267.182C741.526 266.885 740.811 266.51 740.142 266.064C739.466 265.609 738.835 265.09 738.257 264.514C736.492 262.716 735.323 260.415 734.908 257.926C734.494 255.437 734.854 252.88 735.939 250.604C737.025 248.327 738.783 246.441 740.975 245.203C743.168 243.964 745.687 243.433 748.191 243.682C750.695 243.93 753.061 244.946 754.969 246.592C756.876 248.238 758.232 250.433 758.851 252.879C759.471 255.325 759.324 257.903 758.43 260.262C757.537 262.621 755.941 264.647 753.859 266.064C753.181 266.497 752.468 266.872 751.727 267.182C750.977 267.488 750.202 267.725 749.41 267.892C748.617 268.053 747.809 268.136 747 268.14Z" fill="#346B99"/>
<path d="M824.4 463.643C821.131 463.634 817.998 462.329 815.684 460.013C813.369 457.697 812.06 454.558 812.042 451.279C812.048 450.458 812.131 449.638 812.29 448.831C812.451 448.046 812.689 447.278 813 446.538C813.627 445.033 814.54 443.665 815.688 442.51C817.418 440.79 819.615 439.617 822.004 439.138C824.393 438.658 826.87 438.894 829.127 439.814C829.875 440.121 830.59 440.506 831.259 440.961C832.617 441.869 833.783 443.038 834.688 444.4C835.142 445.071 835.525 445.788 835.831 446.538C836.128 447.283 836.366 448.049 836.542 448.831C836.69 449.639 836.763 450.458 836.758 451.279C836.756 452.905 836.435 454.515 835.813 456.016C835.191 457.517 834.28 458.88 833.132 460.028C831.985 461.177 830.623 462.087 829.125 462.707C827.626 463.327 826.021 463.645 824.4 463.643Z" fill="#346B99"/>
<path d="M483.846 451.264C480.873 451.26 478 450.181 475.756 448.225C473.512 446.269 472.046 443.566 471.627 440.614C471.345 438.647 471.085 436.674 470.846 434.695C470.649 433.079 470.771 431.441 471.206 429.872C471.64 428.304 472.378 426.837 473.378 425.555C475.397 422.965 478.359 421.286 481.613 420.887C484.866 420.488 488.144 421.402 490.726 423.427C493.307 425.452 494.981 428.423 495.379 431.686C495.602 433.5 495.841 435.31 496.096 437.115C496.325 438.728 496.235 440.37 495.831 441.948C495.427 443.525 494.717 445.008 493.741 446.31C492.766 447.612 491.544 448.709 490.146 449.537C488.747 450.365 487.2 450.909 485.592 451.137C485.014 451.22 484.43 451.262 483.846 451.264Z" fill="#346B99"/>
<path d="M601.36 169.391C594.804 172.344 565.751 178.092 554.091 176.186C520.209 213.848 482.153 270.101 471.294 353.175C470.66 357.999 470.129 362.898 469.712 367.738C469.572 369.361 469.752 370.994 470.242 372.547C470.732 374.099 471.522 375.539 472.566 376.785C473.611 378.031 474.891 379.058 476.332 379.808C477.772 380.558 479.346 381.016 480.964 381.156C481.324 381.187 481.683 381.202 482.039 381.202C485.13 381.199 488.108 380.034 490.385 377.937C492.662 375.839 494.072 372.963 494.338 369.873C494.724 365.405 495.212 360.887 495.799 356.407C510.539 243.642 584.254 183.793 601.36 169.391Z" fill="#346B99"/>
<path d="M415.591 290.401C416.44 290.582 417.305 290.675 418.174 290.677C421.003 290.674 423.746 289.698 425.944 287.912C428.142 286.125 429.662 283.636 430.25 280.86C440.541 232.356 457.039 201.041 477.612 173.915L446.915 174.869C429.067 202.252 415.171 232.815 406.072 275.698C405.734 277.29 405.713 278.933 406.008 280.534C406.304 282.135 406.911 283.662 407.795 285.027C408.679 286.392 409.822 287.57 411.16 288.492C412.498 289.414 414.003 290.063 415.591 290.401Z" fill="#346B99"/>
</svg>
