<svg width="989" height="978" viewBox="0 0 989 978" fill="none" xmlns="http://www.w3.org/2000/svg">
<path d="M151.099 363.707C112.6 408.12 66.6662 445.451 15.367 474.021C10.7313 476.568 6.86089 480.314 4.15833 484.87C1.45577 489.426 0.0198546 494.625 0 499.926V599.146L5.62899 626.725L97.2685 562.83L151.099 363.707Z" fill="#346B99"/>
<path d="M0 599.137C0 599.137 58.95 558.305 109.676 439.622C109.676 439.622 185.182 238.423 392.54 195.469C392.54 195.469 483.704 166.983 595.638 196.123C651.154 210.14 700.872 241.306 737.763 285.214C753.757 303.991 766.185 325.55 774.431 348.821C775.277 351.279 775.369 353.936 774.695 356.447C774.021 358.958 772.612 361.21 770.65 362.91C768.689 364.611 766.264 365.683 763.689 365.989C761.114 366.294 758.507 365.819 756.204 364.624C739.901 355.796 716.489 350.06 687.948 362.313L521.012 428.315L524.442 876.617L0 917.749V599.137Z" fill="#EEFAFF"/>
<path d="M360.975 711.75C354.119 703.7 345.037 697.87 334.878 694.996C324.718 692.122 313.937 692.333 303.898 695.603C294.732 697.898 286.432 702.822 280.013 709.773C195.47 809.207 79.6431 852.307 0 862.877V897.139L6.74738 917.219L360.975 889.433V711.75Z" fill="#96C1D6"/>
<path d="M371.124 477.504C371.124 477.504 283.776 486.654 235.497 559.641C232.976 563.485 231.539 567.941 231.338 572.538C231.138 577.135 232.182 581.7 234.36 585.75C236.538 589.799 239.768 593.182 243.708 595.539C247.647 597.896 252.15 599.139 256.737 599.137H382.404L371.124 477.504Z" fill="#96C1D6"/>
<path d="M687.939 362.325C687.939 362.325 589.15 401.059 549.222 533.683C538.464 568.451 537.982 605.601 547.835 640.638C561.707 688.488 599.099 745.244 695.802 767.734L524.445 876.629C524.445 876.629 287.752 851.22 331.947 537.969C336.977 502.315 348.803 446.139 368.094 415.765C418.705 358.715 519.709 359.031 559.192 370.4C567.808 372.879 614.802 338.896 625.955 335.413C643.435 329.95 656.692 333.154 670.134 345.638C675.593 350.683 685.313 353.106 687.939 362.325Z" fill="#6295D3"/>
<path d="M599.732 375.823C623.144 360.264 642.607 366.864 657.313 379.696C666.904 372.877 677.166 367.063 687.939 362.343C685.632 354.217 681.114 346.895 674.892 341.198C668.167 335.203 659.986 331.091 651.173 329.276C642.359 327.461 633.225 328.006 624.688 330.858C614.417 334.268 604.603 338.933 595.468 344.749C584.649 351.601 571.61 353.998 559.071 351.439C546.532 348.88 535.463 341.563 528.174 331.016C527.33 329.776 526.604 328.58 525.983 327.502C525.596 326.817 525.063 326.226 524.424 325.77C523.784 325.313 523.053 325.003 522.281 324.86C521.509 324.718 520.715 324.746 519.955 324.944C519.196 325.142 518.488 325.504 517.883 326.005L500.251 340.653C490.519 348.731 478.282 353.151 465.649 353.153H456.647C440.754 353.08 425.257 358.121 412.433 367.537C394.732 380.809 379.635 397.254 367.905 416.041C387.087 402.317 410.496 391.394 436.139 391.905C436.139 391.905 476.373 409.317 507.586 375.829C507.598 375.823 544.31 412.66 599.732 375.823Z" fill="#346B99"/>
<path d="M326.475 609.329C326.2 655.143 317.664 709.417 328.752 740.946L524.432 876.62L695.789 767.725C676.517 763.39 657.801 756.861 640.006 748.265C613.792 776.621 548.644 776.597 548.644 776.597C381.696 726.295 416.703 561.81 416.703 561.81C416.703 561.81 363.209 588.778 326.475 609.329Z" fill="#346B99"/>
<path d="M207.627 611.631C207.627 611.631 265.906 508.051 393.427 525.692C398.265 526.299 402.879 528.096 406.857 530.925C410.835 533.753 414.054 537.523 416.227 541.901C421.708 553.456 420.568 570.657 386.72 588.939C386.72 588.939 408.006 634.323 351.985 653.77C351.985 653.77 367.927 673.993 354.339 705.438C354.339 705.438 334.876 737.284 305.912 758.243L274.399 716.237L207.627 611.631Z" fill="#EEFAFF"/>
<path d="M303.505 761.825C332.472 740.862 347.326 721.657 354.333 705.429C347.443 699.642 339.202 695.705 330.38 693.985C321.559 692.265 312.447 692.82 303.898 695.597C294.92 698.334 286.729 703.194 280.013 709.767C278 711.792 276.127 713.952 274.406 716.231L303.505 761.825Z" fill="#96C1D6"/>
<path d="M649.361 531.111C644.85 535.431 641.686 540.972 640.254 547.061C638.822 553.149 639.184 559.524 641.294 565.411C642.895 569.785 645.155 573.888 647.995 577.576C666.68 601.808 705.376 587.969 705.441 557.335C705.441 556.973 705.441 556.607 705.441 556.235C705.401 550.721 703.98 545.304 701.307 540.485C700.915 539.778 700.488 539.028 700.031 538.241C697.559 533.964 694.149 530.306 690.059 527.546C685.97 524.785 681.308 522.993 676.426 522.306C671.544 521.619 666.571 522.055 661.882 523.581C657.193 525.106 652.911 527.681 649.361 531.111Z" fill="#6295D3"/>
<path d="M517.262 693.88C514.732 688.247 512.365 682.436 510.227 676.617C509.094 673.532 506.786 671.025 503.81 669.648C500.835 668.27 497.435 668.134 494.36 669.27C491.284 670.406 488.785 672.721 487.411 675.706C486.037 678.691 485.902 682.1 487.035 685.185C489.37 691.547 491.959 697.89 494.727 704.059C512.353 743.307 554.632 792.165 611.58 821.237L636.333 805.508C574.194 778.905 531.696 726.035 517.262 693.88Z" fill="#346B99"/>
<path d="M881.212 547.686C893.201 547.686 902.919 537.939 902.919 525.915C902.919 513.891 893.201 504.143 881.212 504.143C869.224 504.143 859.506 513.891 859.506 525.915C859.506 537.939 869.224 547.686 881.212 547.686Z" fill="#6295D3"/>
<path d="M798.782 708.497C835.003 728.201 899.372 760.731 944.843 778.973L979.136 794.015L988.627 839.023V977.985H944.843L460.082 956.56L461.2 841.288C461.2 841.288 629.372 831.992 751.94 714.719C757.904 708.535 765.777 704.556 774.281 703.426C782.785 702.296 791.419 704.083 798.782 708.497Z" fill="#346B99"/>
<path d="M946.919 773.792C901.442 755.547 838.031 722.1 801.816 702.398C793.838 698.074 784.696 696.402 775.709 697.623C766.723 698.845 758.354 702.896 751.81 709.194C629.242 826.495 461.21 832.355 461.21 832.355L452.942 977.994H633.648C639.424 960.436 643.114 942.256 644.643 923.832C645.405 915.192 646.718 906.611 648.573 898.14C650.679 888.838 654.663 880.067 660.28 872.37C665.897 864.672 673.027 858.21 681.231 853.384C689.434 848.557 698.536 845.468 707.976 844.307C717.416 843.146 726.993 843.938 736.116 846.634L840.095 877.196C841.547 877.623 843.102 877.535 844.498 876.946C845.893 876.357 847.043 875.304 847.754 873.963C848.465 872.623 848.693 871.077 848.399 869.588C848.106 868.098 847.309 866.756 846.144 865.787C828.061 850.829 806.414 833.982 789.724 821.202C786.537 818.756 783.945 815.616 782.143 812.019C780.341 808.422 779.376 804.462 779.321 800.437C779.265 796.412 780.121 792.427 781.824 788.781C783.526 785.136 786.031 781.926 789.15 779.392L789.672 778.967C793.652 775.685 798.537 773.703 803.673 773.285C808.808 772.868 813.949 774.035 818.404 776.631C864.196 803.518 949.567 828.438 988.651 839.032V783.132C972.472 786.246 946.919 773.792 946.919 773.792Z" fill="#EEFAFF"/>
<path d="M644.634 923.828C645.396 915.189 646.709 906.608 648.564 898.137C650.502 889.449 654.095 881.218 659.145 873.896C614.351 859.732 570.516 842.679 527.914 822.845C505.963 827.786 483.655 830.968 461.2 832.361L452.933 978H633.648C639.421 960.439 643.109 942.256 644.634 923.828Z" fill="#96C1D6"/>
<path d="M353.069 750.645C418.201 807.37 600.297 928.728 944.843 977.985C856.824 974.291 764.944 969.649 725.85 977.985H417.077C381.57 970.885 348.278 969.373 318.996 977.985H136.409L9.48773 972.097L0 904.728C0 904.728 164.582 882.916 299.334 752.718C315.14 737.445 336.498 736.211 353.069 750.645Z" fill="#6295D3"/>
<path d="M299.718 834.849C306.001 830.117 312.524 825.712 319.258 821.652C326.737 817.175 335.399 815.092 344.088 815.68C352.778 816.269 361.082 819.501 367.893 824.946C481.158 914.566 645.635 960.021 725.85 977.984H944.843C600.297 928.715 420.627 801.538 355.495 744.813C347.515 737.83 337.218 734.095 326.631 734.342C316.043 734.589 305.931 738.801 298.284 746.149C163.531 876.35 0 897.139 0 897.139V977.984H136.393C148.467 942.774 164.464 924.067 178.796 914.247C186.225 909.221 195.124 906.849 204.061 907.513C212.997 908.177 221.451 911.838 228.061 917.907C254.188 941.55 288.775 962.286 318.996 977.984H417.077C374.76 957.585 334.959 932.306 298.479 902.661C293.394 898.557 289.314 893.34 286.549 887.411C283.785 881.481 282.409 874.996 282.529 868.451C282.649 861.906 284.26 855.475 287.239 849.651C290.218 843.827 294.487 838.764 299.718 834.849Z" fill="#EEFAFF"/>
<path d="M183.112 678.383C181.556 678.372 180.005 678.214 178.478 677.912C176.947 677.604 175.452 677.142 174.014 676.533C172.571 675.942 171.194 675.202 169.905 674.324C167.274 672.638 165.04 670.399 163.358 667.761C161.622 665.153 160.408 662.231 159.784 659.159C159.155 656.092 159.155 652.93 159.784 649.863C160.088 648.327 160.547 646.827 161.155 645.385C161.746 643.939 162.484 642.558 163.358 641.264C164.212 639.961 165.189 638.742 166.275 637.626C169.058 634.869 172.47 632.836 176.214 631.702C179.959 630.568 183.923 630.367 187.762 631.119C189.292 631.404 190.789 631.846 192.229 632.439C193.654 633.064 195.027 633.803 196.335 634.648C197.636 635.526 198.852 636.525 199.965 637.632C201.053 638.763 202.048 639.979 202.94 641.27C203.795 642.566 204.515 643.947 205.087 645.391C205.694 646.833 206.153 648.334 206.456 649.869C207.088 652.935 207.088 656.099 206.456 659.165C206.152 660.7 205.693 662.201 205.087 663.643C204.514 665.087 203.794 666.469 202.94 667.767C202.048 669.058 201.053 670.275 199.965 671.405C195.483 675.867 189.427 678.375 183.112 678.383Z" fill="#5C91C4"/>
<path d="M747 451.14C746.18 451.136 745.363 451.053 744.559 450.892C743.776 450.73 743.011 450.492 742.273 450.182C741.526 449.885 740.811 449.51 740.141 449.064C739.465 448.609 738.834 448.09 738.257 447.514C736.492 445.716 735.323 443.415 734.908 440.926C734.493 438.437 734.853 435.88 735.939 433.604C737.025 431.327 738.783 429.441 740.975 428.203C743.167 426.964 745.687 426.433 748.191 426.682C750.694 426.93 753.061 427.946 754.969 429.592C756.876 431.238 758.232 433.433 758.851 435.879C759.47 438.325 759.323 440.903 758.43 443.262C757.537 445.621 755.941 447.647 753.858 449.064C753.181 449.497 752.468 449.872 751.727 450.182C750.977 450.488 750.202 450.725 749.41 450.892C748.616 451.053 747.809 451.136 747 451.14Z" fill="#346B99"/>
<path d="M824.4 646.643C821.131 646.634 817.998 645.329 815.684 643.013C813.369 640.697 812.06 637.558 812.042 634.279C812.048 633.458 812.131 632.638 812.29 631.831C812.451 631.046 812.689 630.278 813 629.538C813.627 628.033 814.54 626.665 815.688 625.51C817.419 623.79 819.615 622.617 822.004 622.138C824.393 621.658 826.87 621.894 829.127 622.814C829.875 623.121 830.59 623.506 831.259 623.961C832.617 624.869 833.783 626.038 834.688 627.4C835.142 628.071 835.525 628.788 835.831 629.538C836.129 630.283 836.366 631.049 836.542 631.831C836.691 632.639 836.763 633.458 836.758 634.279C836.756 635.905 836.435 637.515 835.813 639.016C835.191 640.517 834.28 641.88 833.132 643.028C831.985 644.177 830.623 645.087 829.125 645.707C827.627 646.327 826.021 646.645 824.4 646.643Z" fill="#346B99"/>
<path d="M483.846 634.264C480.873 634.26 478 633.181 475.756 631.225C473.512 629.269 472.046 626.566 471.627 623.614C471.345 621.647 471.085 619.674 470.846 617.695C470.649 616.079 470.771 614.441 471.205 612.872C471.64 611.304 472.378 609.837 473.378 608.555C475.397 605.965 478.359 604.286 481.613 603.887C484.866 603.488 488.144 604.402 490.726 606.427C493.307 608.452 494.981 611.423 495.379 614.686C495.602 616.5 495.84 618.31 496.096 620.115C496.325 621.728 496.235 623.37 495.831 624.948C495.427 626.525 494.717 628.008 493.741 629.31C492.766 630.612 491.544 631.709 490.146 632.537C488.747 633.365 487.2 633.909 485.592 634.137C485.014 634.22 484.43 634.262 483.846 634.264Z" fill="#346B99"/>
<path d="M601.36 352.391C594.804 355.344 565.751 361.092 554.091 359.186C520.209 396.848 482.153 453.101 471.294 536.175C470.66 540.999 470.129 545.898 469.712 550.738C469.572 552.361 469.752 553.994 470.242 555.547C470.732 557.099 471.521 558.539 472.566 559.785C473.611 561.031 474.891 562.058 476.331 562.808C477.772 563.558 479.346 564.016 480.964 564.156C481.324 564.187 481.682 564.202 482.039 564.202C485.13 564.199 488.108 563.034 490.385 560.937C492.661 558.839 494.072 555.963 494.338 552.873C494.724 548.405 495.212 543.887 495.799 539.407C510.539 426.642 584.253 366.793 601.36 352.391Z" fill="#346B99"/>
<path d="M415.591 473.401C416.44 473.582 417.306 473.675 418.174 473.677C421.003 473.674 423.746 472.698 425.944 470.912C428.142 469.125 429.662 466.636 430.25 463.86C440.541 415.356 457.039 384.041 477.612 356.915L446.915 357.869C429.067 385.252 415.171 415.815 406.072 458.698C405.735 460.29 405.713 461.933 406.008 463.534C406.304 465.135 406.911 466.662 407.795 468.027C408.679 469.392 409.822 470.57 411.16 471.492C412.498 472.414 414.003 473.063 415.591 473.401Z" fill="#346B99"/>
<path d="M303.6 72.264V90.568C303.6 101.661 300.827 110.408 295.28 116.808C289.733 123.123 281.627 126.28 270.96 126.28C260.208 126.28 252.059 123.123 246.512 116.808C241.051 110.408 238.32 101.661 238.32 90.568V72.264C238.32 61.1707 241.051 52.4667 246.512 46.152C252.059 39.8373 260.208 36.68 270.96 36.68C281.627 36.68 289.733 39.8373 295.28 46.152C300.827 52.4667 303.6 61.1707 303.6 72.264ZM287.856 72.264C287.856 65.2667 286.491 60.0187 283.76 56.52C281.029 52.936 276.763 51.144 270.96 51.144C265.157 51.144 260.891 52.936 258.16 56.52C255.429 60.0187 254.064 65.2667 254.064 72.264V90.568C254.064 97.5653 255.429 102.856 258.16 106.44C260.891 110.024 265.157 111.816 270.96 111.816C276.763 111.816 281.029 110.024 283.76 106.44C286.491 102.856 287.856 97.5653 287.856 90.568V72.264ZM335.683 90.568C335.683 96.7973 337.048 101.917 339.779 105.928C342.51 109.853 346.99 111.816 353.219 111.816C355.779 111.816 358.424 111.475 361.155 110.792C363.971 110.109 367.427 108.957 371.523 107.336L376.259 120.648C371.651 122.696 367.384 124.147 363.459 125C359.619 125.853 355.907 126.28 352.323 126.28C345.155 126.28 339.139 124.744 334.275 121.672C329.496 118.6 325.912 114.376 323.523 109C321.134 103.624 319.939 97.48 319.939 90.568V72.264C319.939 65.352 321.134 59.208 323.523 53.832C325.912 48.456 329.496 44.2747 334.275 41.288C339.139 38.216 345.155 36.68 352.323 36.68C355.822 36.68 359.448 37.1067 363.203 37.96C366.958 38.728 371.054 40.0933 375.491 42.056L370.755 55.624C366.83 54.0027 363.544 52.8507 360.899 52.168C358.254 51.4853 355.694 51.144 353.219 51.144C346.99 51.144 342.51 53.1067 339.779 57.032C337.048 60.9573 335.683 66.0347 335.683 72.264V90.568ZM442.714 110.28V125H392.282V37.96H441.434V52.68H407.642V73.544H437.594V88.264H407.642V110.28H442.714ZM507.243 125L501.867 107.976H472.043L466.667 125H451.435L480.491 37.96H494.059L523.243 125H507.243ZM480.363 81.352L476.395 93.896H497.387L493.419 81.352L487.019 59.336L480.363 81.352ZM537.782 125V37.96H551.862C558.603 46.7493 565.003 56.0507 571.062 65.864C577.121 75.592 582.625 85.6187 587.574 95.944L586.422 69.96V37.96H601.142V125H587.062C581.601 114.248 575.926 103.453 570.038 92.616C564.235 81.6933 558.049 71.4107 551.478 61.768L552.502 91.72V125H537.782ZM647.326 80.072L649.886 37.96H694.43V52.424H663.454L662.302 71.624C665.289 70.856 668.489 70.472 671.902 70.472C680.35 70.472 686.963 72.6907 691.742 77.128C696.521 81.48 698.91 87.9227 698.91 96.456V99.912C698.91 104.691 697.929 109.085 695.966 113.096C694.003 117.107 690.846 120.307 686.494 122.696C682.227 125.085 676.553 126.28 669.47 126.28C665.545 126.28 661.449 125.811 657.182 124.872C653.001 123.933 648.393 122.355 643.358 120.136L648.094 106.952C652.617 108.744 656.414 110.067 659.486 110.92C662.643 111.688 665.801 112.072 668.958 112.072C673.737 112.072 677.321 111.091 679.71 109.128C682.185 107.165 683.422 104.093 683.422 99.912V96.456C683.422 92.7013 682.313 89.7147 680.094 87.496C677.961 85.2773 674.505 84.168 669.726 84.168C667.593 84.168 665.374 84.4667 663.07 85.064C660.766 85.576 658.291 86.344 655.646 87.368L647.326 80.072Z" fill="white"/>
</svg>
