<svg width="75" height="76" viewBox="0 0 75 76" fill="none" xmlns="http://www.w3.org/2000/svg">
<path d="M40.9416 0C39.6146 0 38.3084 0.0987798 37.0216 0.272944C35.6959 0.0961803 34.3897 0 33.1432 0C23.5746 0 14.9456 4.64005 8.89019 12.0407C8.8291 12.0953 8.78361 12.1603 8.73422 12.2266C6.80411 14.6181 5.14565 17.2943 3.80432 20.1901C3.77053 20.2525 3.74194 20.3123 3.71854 20.3798C2.79443 22.4035 2.02239 24.5312 1.43101 26.7472C1.37252 26.872 1.34653 27.0085 1.32963 27.1515C0.469204 30.4983 0 34.0336 0 37.6923C0 43.4176 1.13337 48.8453 3.15056 53.7102C3.16875 53.7609 3.18565 53.809 3.20904 53.8558C4.4191 56.7412 5.94109 59.4239 7.72692 61.8492C7.77111 61.909 7.80751 61.9739 7.86209 62.0259C9.66873 64.4499 11.7405 66.6088 14.0241 68.4505C14.0878 68.522 14.1658 68.5727 14.2438 68.6286C19.6078 72.8813 26.1221 75.3846 33.1432 75.3846C34.3897 75.3846 35.6959 75.2884 37.0216 75.1117C38.3084 75.2858 39.6146 75.3846 40.9416 75.3846C59.2172 75.3846 74.0849 58.4764 74.0849 37.6923C74.0849 16.9082 59.2172 0 40.9416 0ZM27.1891 3.4118C26.7758 3.62756 26.3677 3.85111 25.9635 4.08507C25.7178 4.22674 25.4696 4.36581 25.2278 4.51398C24.8717 4.73363 24.5234 4.96499 24.1751 5.19894H21.6718C23.572 4.30992 25.5567 3.60806 27.6233 3.17265C27.4764 3.24674 27.336 3.33512 27.1891 3.4118ZM14.1151 59.7878H9.45297C8.3066 58.1683 7.28891 56.428 6.40509 54.5889H11.3285C11.5325 55.0503 11.7431 55.5065 11.9628 55.9562C12.0563 56.1485 12.1551 56.337 12.2513 56.5268C12.519 57.0519 12.7972 57.5678 13.0857 58.076C13.191 58.2632 13.2937 58.4517 13.4016 58.6362C13.6316 59.0275 13.8721 59.4083 14.1151 59.7878ZM5.80721 22.0955H10.7813C10.5525 22.6648 10.3368 23.2406 10.1327 23.8228C10.0768 23.9827 10.021 24.1413 9.96637 24.3011C9.7792 24.86 9.60504 25.4241 9.43997 25.9947H4.36191C4.77652 24.6547 5.26003 23.3549 5.80721 22.0955ZM2.59947 37.6923C2.59947 36.8163 2.64626 35.9533 2.70085 35.0928H7.88289C7.88159 35.1136 7.88159 35.1344 7.88029 35.1552C7.8322 35.9949 7.79841 36.8384 7.79841 37.6923C7.79841 38.1277 7.814 38.5592 7.827 38.992H2.65016C2.63586 38.5579 2.59947 38.1303 2.59947 37.6923ZM7.97517 41.5915C8.02456 42.1387 8.08825 42.682 8.15843 43.2227C8.16363 43.2617 8.16623 43.302 8.17143 43.3423C8.26761 44.0649 8.38459 44.7811 8.51586 45.4907H3.38971C3.13626 44.2144 2.9361 42.9159 2.80743 41.5915H7.97517ZM8.78101 28.5942C8.74721 28.7488 8.71862 28.9048 8.68613 29.0595C8.65103 29.2297 8.61594 29.3987 8.58215 29.569C8.42358 30.3852 8.28191 31.2079 8.17143 32.0424C8.16623 32.0813 8.16363 32.1216 8.15843 32.1619C8.14414 32.2724 8.13504 32.3829 8.12074 32.4934H2.9621C3.13366 31.1702 3.35072 29.8653 3.64836 28.5942H8.78101ZM9.09164 48.0902C9.13194 48.25 9.16963 48.4112 9.21252 48.5711C9.22682 48.627 9.23981 48.6842 9.25541 48.74C9.46987 49.5329 9.71032 50.3127 9.96897 51.0822C10.0223 51.242 10.0794 51.4006 10.1353 51.5605C10.1847 51.7034 10.2328 51.8464 10.2848 51.9881H5.27432C4.78172 50.726 4.35801 49.4237 3.99668 48.0889L9.09164 48.0902ZM13.4016 16.7471C13.2937 16.9316 13.191 17.1201 13.0857 17.3073C12.7972 17.8155 12.519 18.3328 12.2513 18.8566C12.1551 19.0463 12.0563 19.2348 11.9628 19.4271C11.9511 19.4505 11.9394 19.4726 11.9277 19.496H7.05626C8.04016 17.6413 9.17353 15.9062 10.4304 14.2971H14.9833C14.8248 14.5245 14.6649 14.7494 14.5115 14.9807C14.1281 15.5565 13.7564 16.1453 13.4016 16.7471ZM17.1968 7.79841H20.788C20.4669 8.07915 20.1459 8.36249 19.8327 8.65623C19.5688 8.90578 19.3128 9.16443 19.0554 9.42178C18.8007 9.67782 18.5485 9.93647 18.3016 10.2016C18.0598 10.4603 17.8168 10.7163 17.5815 10.9815C17.3749 11.2154 17.1773 11.4572 16.9758 11.6976H12.6841C14.08 10.2458 15.5864 8.93698 17.1968 7.79841ZM11.4689 62.3873H15.9295C16.0764 62.5796 16.222 62.7733 16.3728 62.9617C16.7653 63.4543 17.1682 63.9352 17.5828 64.4031C17.8181 64.6696 18.0611 64.9257 18.3029 65.183C18.5511 65.4468 18.802 65.7068 19.0567 65.9628C19.162 66.0694 19.2634 66.1825 19.3699 66.2865H15.4603C14.0332 65.118 12.6984 63.8131 11.4689 62.3873ZM27.6233 72.212C24.643 71.5842 21.8264 70.4326 19.214 68.8859H22.358C22.5205 69.0107 22.6869 69.129 22.8506 69.2512C23.1275 69.4565 23.4017 69.6632 23.6838 69.8594C24.1894 70.2117 24.7041 70.5496 25.2266 70.8706C25.4696 71.0201 25.7165 71.1579 25.9622 71.2995C26.3664 71.5335 26.7745 71.7584 27.1878 71.9728C27.336 72.0495 27.4764 72.1379 27.6233 72.212ZM40.9416 72.7851C39.9097 72.7851 38.8894 72.7241 37.8821 72.6084L37.3661 72.5356C37.3024 72.5265 37.2387 72.5174 37.175 72.5083C36.7227 72.4446 36.2743 72.3692 35.8285 72.2834C35.796 72.2769 35.7648 72.2704 35.7336 72.2639C35.2982 72.1782 34.8667 72.0833 34.4391 71.9767C34.3819 71.9624 34.326 71.9468 34.2701 71.9312C33.8685 71.8285 33.4695 71.7194 33.0743 71.5985C32.9678 71.566 32.8638 71.5283 32.7585 71.4945C32.4141 71.3853 32.071 71.2736 31.733 71.1501C31.4926 71.063 31.256 70.9655 31.0195 70.8719C30.8167 70.7926 30.6126 70.7173 30.4125 70.6328C23.4251 67.6746 17.6309 61.8622 14.106 54.4329C14.0748 54.3653 14.0449 54.2977 14.0137 54.2301C13.824 53.8246 13.6394 53.4139 13.464 52.998C13.3951 52.8355 13.3314 52.6704 13.2651 52.5067C13.1325 52.1817 13.0025 51.8555 12.8791 51.5254C12.8011 51.3161 12.727 51.1043 12.6516 50.8924C12.5489 50.6026 12.4476 50.3114 12.3501 50.0164C12.2721 49.7785 12.198 49.5394 12.1252 49.2989C12.0407 49.0234 11.9589 48.7466 11.8796 48.4671C11.8081 48.2137 11.7405 47.9589 11.6742 47.7042C11.6027 47.4312 11.5351 47.1557 11.4702 46.8788C11.4078 46.6176 11.348 46.355 11.2921 46.0899C11.2323 45.813 11.1777 45.5336 11.1244 45.2542C11.0737 44.989 11.023 44.7226 10.9763 44.4561C10.9269 44.1676 10.884 43.8764 10.8411 43.584C10.8398 43.5755 10.8386 43.567 10.8373 43.5585C10.7996 43.3059 10.762 43.0542 10.7293 42.799C10.689 42.487 10.6578 42.1712 10.6253 41.8567C10.5993 41.611 10.5707 41.3667 10.5499 41.1197C10.5188 40.7584 10.498 40.3945 10.4772 40.0292C10.4655 39.8239 10.4486 39.6211 10.4395 39.4158C10.4122 38.8478 10.3979 38.272 10.3979 37.6923C10.3979 37.1126 10.4122 36.5368 10.4356 35.9637C10.4447 35.7583 10.4616 35.5542 10.4733 35.3502C10.4734 35.3477 10.4735 35.3453 10.4737 35.3428C10.4943 34.9813 10.5151 34.6186 10.546 34.2597C10.5668 34.0128 10.5954 33.7684 10.6214 33.5228C10.622 33.5168 10.6227 33.5108 10.6233 33.5048C10.6552 33.1962 10.6872 32.8865 10.7254 32.5804C10.7592 32.3179 10.7995 32.0567 10.8372 31.7954C10.8801 31.5043 10.9243 31.2131 10.9724 30.9233C11.0179 30.6555 11.0685 30.3904 11.1205 30.1252C11.1738 29.8458 11.2284 29.5664 11.2882 29.2895C11.3454 29.0257 11.4052 28.7631 11.4663 28.5006C11.5312 28.2237 11.6001 27.9495 11.6703 27.6752C11.7366 27.4192 11.8042 27.1658 11.8757 26.9123C11.9537 26.6329 12.0368 26.356 12.1213 26.0805C12.1967 25.8439 12.2695 25.6035 12.3475 25.3669C12.4437 25.0732 12.545 24.782 12.649 24.4909C12.7244 24.279 12.7972 24.0672 12.8765 23.8579C12.9999 23.5278 13.1312 23.2016 13.2625 22.8766C13.3288 22.7129 13.3925 22.5478 13.4614 22.3853C13.6368 21.9694 13.8214 21.56 14.0111 21.1532C14.0423 21.0856 14.0722 21.0167 14.1034 20.9504C17.6283 13.5198 23.4238 7.70743 30.4099 4.75053C30.6101 4.66605 30.8141 4.59196 31.0169 4.51138C31.2547 4.4178 31.4913 4.32032 31.7304 4.23324C32.0697 4.11106 32.4128 3.99798 32.7559 3.88881C32.8612 3.85501 32.9665 3.81732 33.0717 3.78483C33.4669 3.66395 33.8659 3.55477 34.2675 3.4521C34.3247 3.4378 34.3806 3.4209 34.4365 3.4066C34.8641 3.30003 35.2956 3.20515 35.731 3.11936C35.7635 3.11286 35.7947 3.10637 35.8259 3.09987C36.2717 3.01408 36.7201 2.9387 37.1724 2.87501C37.2361 2.86591 37.2998 2.85552 37.3635 2.84772L37.8795 2.77493C38.8894 2.66056 39.9097 2.59947 40.9416 2.59947C57.7836 2.59947 71.4854 18.3419 71.4854 37.6923C71.4854 57.0428 57.7836 72.7851 40.9416 72.7851Z" fill="#EEEFEB"/>
<path d="M40.9416 72.7851C39.9097 72.7851 38.8894 72.7241 37.8821 72.6084L37.3661 72.5356L37.175 72.5083C36.7227 72.4446 36.2743 72.3692 35.8285 72.2834C35.796 72.2769 35.7648 72.2704 35.7336 72.2639C35.2982 72.1782 34.8667 72.0833 34.4391 71.9767C34.3819 71.9624 34.326 71.9468 34.2701 71.9312C33.8685 71.8285 33.4695 71.7194 33.0743 71.5985C32.9678 71.566 32.8638 71.5283 32.7585 71.4945C32.4141 71.3853 32.071 71.2736 31.733 71.1501C31.4926 71.063 31.256 70.9655 31.0195 70.8719C30.8167 70.7926 30.6126 70.7173 30.4125 70.6328C23.4251 67.6746 17.6309 61.8622 14.106 54.4329C14.0748 54.3653 14.0449 54.2977 14.0137 54.2301C13.824 53.8246 13.6394 53.4139 13.464 52.998C13.3951 52.8355 13.3314 52.6704 13.2651 52.5067C13.1325 52.1817 13.0025 51.8555 12.8791 51.5254C12.8011 51.3161 12.727 51.1043 12.6516 50.8924C12.5489 50.6026 12.4476 50.3114 12.3501 50.0164C12.2721 49.7785 12.198 49.5394 12.1252 49.2989C12.0407 49.0234 11.9589 48.7466 11.8796 48.4671C11.8081 48.2137 11.7405 47.9589 11.6742 47.7042C11.6027 47.4312 11.5351 47.1557 11.4702 46.8788C11.4078 46.6176 11.348 46.355 11.2921 46.0899C11.2323 45.813 11.1777 45.5336 11.1244 45.2542C11.0737 44.989 11.023 44.7226 10.9763 44.4561C10.9269 44.1676 10.884 43.8764 10.8411 43.584L10.8373 43.5585C10.7996 43.3059 10.762 43.0542 10.7293 42.799C10.689 42.487 10.6578 42.1712 10.6253 41.8567C10.5993 41.611 10.5707 41.3667 10.5499 41.1197C10.5188 40.7584 10.498 40.3945 10.4772 40.0292C10.4655 39.8239 10.4486 39.6211 10.4395 39.4158C10.4122 38.8478 10.3979 38.272 10.3979 37.6923C10.3979 37.1126 10.4122 36.5368 10.4356 35.9637C10.4447 35.7583 10.4616 35.5542 10.4733 35.3502L10.4737 35.3428C10.4943 34.9813 10.5151 34.6186 10.546 34.2597C10.5668 34.0128 10.5954 33.7684 10.6214 33.5228L10.6233 33.5048C10.6552 33.1962 10.6872 32.8865 10.7254 32.5804C10.7592 32.3179 10.7995 32.0567 10.8372 31.7954C10.8801 31.5043 10.9243 31.2131 10.9724 30.9233C11.0179 30.6555 11.0685 30.3904 11.1205 30.1252C11.1738 29.8458 11.2284 29.5664 11.2882 29.2895C11.3454 29.0257 11.4052 28.7631 11.4663 28.5006C11.5312 28.2237 11.6001 27.9495 11.6703 27.6752C11.7366 27.4192 11.8042 27.1658 11.8757 26.9123C11.9537 26.6329 12.0368 26.356 12.1213 26.0805C12.1967 25.8439 12.2695 25.6035 12.3475 25.3669C12.4437 25.0732 12.545 24.782 12.649 24.4909C12.7244 24.279 12.7972 24.0672 12.8765 23.8579C12.9999 23.5278 13.1312 23.2016 13.2625 22.8766C13.3288 22.7129 13.3925 22.5478 13.4614 22.3853C13.6368 21.9694 13.8214 21.56 14.0111 21.1532C14.0423 21.0856 14.0722 21.0167 14.1034 20.9504C17.6283 13.5198 23.4238 7.70743 30.4099 4.75053C30.6101 4.66605 30.8141 4.59196 31.0169 4.51138C31.2547 4.4178 31.4913 4.32032 31.7304 4.23324C32.0697 4.11106 32.4128 3.99798 32.7559 3.88881C32.8612 3.85501 32.9665 3.81732 33.0717 3.78483C33.4669 3.66395 33.8659 3.55477 34.2675 3.4521C34.3247 3.4378 34.3806 3.4209 34.4365 3.4066C34.8641 3.30003 35.2956 3.20515 35.731 3.11936C35.7635 3.11286 35.7947 3.10637 35.8259 3.09987C36.2717 3.01408 36.7201 2.9387 37.1724 2.87501C37.2361 2.86591 37.2998 2.85552 37.3635 2.84772L37.8795 2.77493C38.8894 2.66056 39.9097 2.59947 40.9416 2.59947C57.7836 2.59947 71.4854 18.3419 71.4854 37.6923C71.4854 57.0428 57.7836 72.7851 40.9416 72.7851Z" fill="#6F6EAF"/>
<path d="M13.4016 16.7471C13.2937 16.9316 13.191 17.1201 13.0857 17.3073C12.7972 17.8155 12.519 18.3328 12.2513 18.8566C12.1551 19.0463 12.0563 19.2348 11.9628 19.4271C11.9511 19.4505 11.9394 19.4726 11.9277 19.496H7.05626C8.04016 17.6413 9.17353 15.9062 10.4304 14.2971H14.9833C14.8248 14.5245 14.6649 14.7494 14.5115 14.9807C14.1281 15.5565 13.7564 16.1453 13.4016 16.7471Z" fill="#6F6EAF"/>
<path d="M17.1968 7.79841H20.788C20.4669 8.07915 20.1459 8.36249 19.8327 8.65623C19.5688 8.90578 19.3128 9.16443 19.0554 9.42178C18.8007 9.67782 18.5485 9.93647 18.3016 10.2016C18.0598 10.4603 17.8168 10.7163 17.5815 10.9815C17.3749 11.2154 17.1773 11.4572 16.9758 11.6976H12.6841C14.08 10.2458 15.5864 8.93698 17.1968 7.79841Z" fill="#6F6EAF"/>
<path d="M5.80721 22.0955H10.7813C10.5525 22.6648 10.3368 23.2406 10.1327 23.8228C10.0768 23.9827 10.021 24.1413 9.96637 24.3011C9.7792 24.86 9.60504 25.4241 9.43997 25.9947H4.36191C4.77652 24.6547 5.26003 23.3549 5.80721 22.0955Z" fill="#6F6EAF"/>
<path d="M8.78101 28.5942C8.74721 28.7488 8.71862 28.9048 8.68613 29.0595C8.65103 29.2297 8.61594 29.3987 8.58215 29.569C8.42358 30.3852 8.28191 31.2079 8.17143 32.0424C8.16623 32.0813 8.16363 32.1216 8.15843 32.1619C8.14414 32.2724 8.13504 32.3829 8.12074 32.4934H2.9621C3.13366 31.1702 3.35072 29.8653 3.64836 28.5942H8.78101Z" fill="#6F6EAF"/>
<path d="M2.59947 37.6923C2.59947 36.8163 2.64626 35.9533 2.70085 35.0928H7.88289C7.88159 35.1136 7.88159 35.1344 7.88029 35.1552C7.8322 35.9949 7.79841 36.8384 7.79841 37.6923C7.79841 38.1277 7.814 38.5592 7.827 38.992H2.65016C2.63586 38.5579 2.59947 38.1303 2.59947 37.6923Z" fill="#6F6EAF"/>
<path d="M7.97517 41.5915C8.02456 42.1387 8.08825 42.682 8.15843 43.2227C8.16363 43.2617 8.16623 43.302 8.17143 43.3423C8.26761 44.0649 8.38459 44.7811 8.51586 45.4907H3.38971C3.13626 44.2144 2.9361 42.9159 2.80743 41.5915H7.97517Z" fill="#6F6EAF"/>
<path d="M27.1891 3.4118C26.7758 3.62756 26.3677 3.85111 25.9635 4.08507C25.7178 4.22674 25.4696 4.36581 25.2278 4.51398C24.8717 4.73363 24.5234 4.96499 24.1751 5.19894H21.6718C23.572 4.30992 25.5567 3.60806 27.6233 3.17265C27.4764 3.24674 27.336 3.33512 27.1891 3.4118Z" fill="#6F6EAF"/>
<path d="M9.09164 48.0902C9.13194 48.25 9.16963 48.4112 9.21252 48.5711C9.22682 48.627 9.23981 48.6842 9.25541 48.74C9.46987 49.5329 9.71032 50.3127 9.96897 51.0822C10.0223 51.242 10.0794 51.4006 10.1353 51.5605C10.1847 51.7034 10.2328 51.8464 10.2848 51.9881H5.27432C4.78172 50.726 4.35801 49.4237 3.99668 48.0889L9.09164 48.0902Z" fill="#6F6EAF"/>
<path d="M14.1151 59.7878H9.45297C8.3066 58.1683 7.28891 56.428 6.40509 54.5889H11.3285C11.5325 55.0503 11.7431 55.5065 11.9628 55.9562C12.0563 56.1485 12.1551 56.337 12.2513 56.5268C12.519 57.0519 12.7972 57.5678 13.0857 58.076C13.191 58.2632 13.2937 58.4517 13.4016 58.6362C13.6316 59.0275 13.8721 59.4083 14.1151 59.7878Z" fill="#6F6EAF"/>
<path d="M11.4689 62.3873H15.9295C16.0764 62.5796 16.222 62.7733 16.3728 62.9617C16.7653 63.4543 17.1682 63.9352 17.5828 64.4031C17.8181 64.6696 18.0611 64.9257 18.3029 65.183C18.5511 65.4468 18.802 65.7068 19.0567 65.9628C19.162 66.0694 19.2634 66.1825 19.3699 66.2865H15.4603C14.0332 65.118 12.6984 63.8131 11.4689 62.3873Z" fill="#6F6EAF"/>
<path d="M27.6233 72.212C24.643 71.5842 21.8264 70.4326 19.214 68.8859H22.358C22.5205 69.0107 22.6869 69.129 22.8506 69.2512C23.1275 69.4565 23.4017 69.6632 23.6838 69.8594C24.1894 70.2117 24.7041 70.5496 25.2266 70.8706C25.4696 71.0201 25.7165 71.1579 25.9622 71.2995C26.3664 71.5335 26.7745 71.7584 27.1878 71.9728C27.336 72.0495 27.4764 72.1379 27.6233 72.212Z" fill="#6F6EAF"/>
<path d="M40.9417 11.0166C41.7293 11.0166 42.526 11.0634 43.3046 11.1531C43.3566 11.1596 43.4073 11.1622 43.4567 11.1622C44.1078 11.1622 44.6693 10.6748 44.746 10.0132C44.8292 9.30093 44.3184 8.65497 43.6061 8.57178C42.7314 8.4691 41.8411 8.41711 40.9183 8.41711C40.9131 8.41711 40.9079 8.41711 40.9027 8.41711L40.8858 9.71685V8.41711C40.167 8.41711 39.6133 8.9981 39.6133 9.71685C39.6146 10.4356 40.2229 11.0166 40.9417 11.0166Z" fill="#EEEFEB"/>
<path d="M50.2296 13.2468C50.9471 13.6081 51.6555 14.0162 52.3352 14.4594C52.5536 14.6024 52.7992 14.6713 53.0436 14.6713C53.4673 14.6713 53.8832 14.4633 54.1341 14.0812C54.5266 13.4807 54.3563 12.6749 53.7545 12.2824C52.9942 11.7859 52.2026 11.3297 51.3994 10.9254C50.756 10.6018 49.9762 10.8604 49.6539 11.5012C49.3315 12.142 49.5889 12.9231 50.2296 13.2468Z" fill="#EEEFEB"/>
<path d="M63.2127 30.2735C63.3595 30.8635 63.8898 31.2574 64.4721 31.2574C64.5774 31.2574 64.6827 31.2444 64.7892 31.2184C65.4859 31.0442 65.9083 30.3384 65.7341 29.6418C65.5171 28.7775 65.261 27.9105 64.9712 27.0657C64.7373 26.3872 63.999 26.0246 63.3192 26.2586C62.6408 26.4912 62.2782 27.2308 62.5108 27.9105C62.7773 28.6839 63.0125 29.4793 63.2127 30.2735Z" fill="#EEEFEB"/>
<path d="M57.8669 55.9133C57.3509 56.5476 56.8011 57.1611 56.2305 57.7381C55.7262 58.2489 55.7314 59.0717 56.2435 59.576C56.4957 59.8255 56.8258 59.9516 57.1559 59.9516C57.4913 59.9516 57.8266 59.8229 58.0813 59.5656C58.7078 58.93 59.3135 58.2541 59.8828 57.5562C60.3364 56.9986 60.2519 56.1798 59.6943 55.7274C59.1367 55.2751 58.3192 55.357 57.8669 55.9133Z" fill="#EEEFEB"/>
<path d="M61.3865 19.8547C60.8835 19.1125 60.3402 18.386 59.7722 17.6945C59.3147 17.1408 58.4985 17.0602 57.9422 17.5165C57.3885 17.9727 57.3092 18.7915 57.7641 19.3465C58.2814 19.9756 58.7766 20.6371 59.2341 21.313C59.485 21.6847 59.8957 21.8836 60.3116 21.8836C60.5625 21.8836 60.8159 21.8108 61.0395 21.66C61.6335 21.2571 61.7894 20.4487 61.3865 19.8547Z" fill="#EEEFEB"/>
<path d="M50.37 62.0677C49.6486 62.4382 48.9026 62.7696 48.1526 63.0516C47.4807 63.3038 47.1414 64.0537 47.3949 64.7257C47.5898 65.2469 48.085 65.5679 48.6114 65.5679C48.7635 65.5679 48.9182 65.5406 49.0702 65.4834C49.9125 65.1663 50.7508 64.7946 51.5592 64.38C52.1974 64.0524 52.4495 63.2687 52.122 62.6305C51.7945 61.9923 51.0107 61.7376 50.37 62.0677Z" fill="#EEEFEB"/>
<path d="M40.9416 64.3681C40.1345 64.3681 39.3209 64.32 38.528 64.2251C37.795 64.1524 37.1672 64.6502 37.0827 65.3624C36.9982 66.0747 37.5064 66.7219 38.2187 66.8077C39.1155 66.9143 40.0331 66.9689 40.9429 66.9689H41.0534C41.7722 66.9689 42.2973 66.3866 42.2973 65.6691C42.2973 64.9517 41.6604 64.3681 40.9416 64.3681Z" fill="#EEEFEB"/>
<path d="M64.2095 46.5071C63.5311 46.2744 62.7915 46.6435 62.5628 47.3233C62.3002 48.1005 62.0013 48.8739 61.6751 49.6238C61.3878 50.2815 61.6907 51.0483 62.3483 51.3343C62.5173 51.4084 62.6941 51.4422 62.8656 51.4422C63.3686 51.4422 63.8456 51.1497 64.0588 50.661C64.4136 49.8435 64.7385 49 65.0245 48.1525C65.2558 47.4741 64.8906 46.7371 64.2095 46.5071Z" fill="#EEEFEB"/>
<path d="M65.4208 36.351C64.7021 36.351 64.1211 36.9748 64.1211 37.6923C64.1211 38.4942 64.0912 39.2988 64.0301 40.0825C63.9742 40.7987 64.5097 41.4238 65.2259 41.4784C65.2597 41.481 65.2948 41.4823 65.3273 41.4823C66.0005 41.4823 66.5685 40.965 66.6218 40.2827C66.6881 39.4326 66.7206 38.5605 66.7206 37.6923V37.6091C66.7206 36.8904 66.1396 36.351 65.4208 36.351Z" fill="#EEEFEB"/>
<path d="M17.7635 37.6923C17.7635 36.8826 17.796 36.0598 17.8597 35.2488C17.9156 34.5326 17.3814 33.9075 16.6653 33.8503C15.9621 33.8035 15.3252 34.3286 15.268 35.0434C15.1992 35.9221 15.1641 36.8137 15.1641 37.691V37.7183C15.1641 38.4357 15.745 39.0037 16.4638 39.0037C17.1826 39.0037 17.7635 38.4097 17.7635 37.6923Z" fill="#EEEFEB"/>
<path d="M18.6577 45.0592C18.4835 44.3626 17.7765 43.9375 17.0824 44.1117C16.3858 44.2846 15.9621 44.9903 16.1349 45.687C16.3507 46.5526 16.6067 47.4195 16.8953 48.2644C17.0798 48.805 17.5841 49.1443 18.1248 49.1443C18.2639 49.1443 18.4056 49.1209 18.5446 49.0741C19.2231 48.8414 19.587 48.1032 19.3544 47.4234C19.0905 46.6501 18.8566 45.8546 18.6577 45.0592Z" fill="#EEEFEB"/>
<path d="M30.9715 13.4353C31.169 13.4353 31.3718 13.3898 31.5603 13.2936C32.2855 12.9245 33.0329 12.5944 33.7815 12.3149C34.4535 12.0641 34.794 11.3141 34.5432 10.6422C34.2923 9.96892 33.5463 9.62709 32.8704 9.88054C32.0308 10.1951 31.1924 10.5642 30.3801 10.9788C29.7406 11.3037 29.4859 12.0875 29.8121 12.727C30.0422 13.1767 30.4984 13.4353 30.9715 13.4353Z" fill="#EEEFEB"/>
<path d="M19.561 23.9995C18.8995 23.7058 18.1365 24.0099 17.8493 24.6676C17.4932 25.4812 17.1656 26.3247 16.8771 27.1748C16.647 27.8545 17.0123 28.5928 17.6907 28.8241C17.8285 28.8709 17.9702 28.893 18.1079 28.893C18.6499 28.893 19.1555 28.5512 19.3388 28.0105C19.6026 27.2307 19.9029 26.4573 20.2304 25.7126C20.5177 25.0549 20.2187 24.2881 19.561 23.9995Z" fill="#EEEFEB"/>
<path d="M31.607 62.1156C30.8895 61.7517 30.1812 61.341 29.504 60.8965C28.9035 60.5027 28.099 60.6729 27.7039 61.2721C27.3114 61.8726 27.479 62.6784 28.0795 63.0709C28.8372 63.5674 29.6275 64.025 30.432 64.4331C30.6205 64.5293 30.8206 64.5734 31.0182 64.5734C31.4926 64.5734 31.9501 64.3135 32.1789 63.8625C32.5038 63.223 32.249 62.4406 31.607 62.1156Z" fill="#EEEFEB"/>
<path d="M22.618 54.0261C22.2151 53.4309 21.408 53.2749 20.8127 53.6765C20.2187 54.0794 20.0627 54.8866 20.4643 55.4818C20.9738 56.2344 21.5145 56.9622 22.0734 57.6446C22.3308 57.9578 22.7025 58.1203 23.0794 58.1203C23.3693 58.1203 23.6604 58.0241 23.9021 57.8253C24.4584 57.369 24.5377 56.5515 24.0841 55.9952C23.5772 55.3753 23.0833 54.7124 22.618 54.0261Z" fill="#EEEFEB"/>
<path d="M23.8449 15.7788C23.2185 16.4105 22.6102 17.0864 22.0383 17.7856C21.5834 18.3419 21.6666 19.1608 22.2229 19.6144C22.4646 19.8119 22.7557 19.9081 23.0443 19.9081C23.4212 19.9081 23.7955 19.7456 24.0516 19.4311C24.5702 18.7955 25.1213 18.1834 25.6906 17.6102C26.1961 17.1007 26.1935 16.2779 25.6828 15.7723C25.1733 15.2667 24.3505 15.268 23.8449 15.7788Z" fill="#EEEFEB"/>
<g clip-path="url(#clip0_48_2)">
<path d="M21.5215 50.4291C21.5215 50.4291 28.2554 48.4509 29.6053 42.5703C30.9553 36.6897 28.2858 26.3498 40.468 23.7191C43.139 23.1423 46.3368 23.7741 48.178 24.5427C57.4164 28.3992 56.0974 40.692 46.0336 39.7869C46.0336 39.7869 49.4231 38.9021 48.4501 34.3963C47.4771 29.8905 41.6921 30.4412 41.6355 34.3833C41.5953 37.1916 43.7096 45.2011 55.5647 43.0775" fill="#88E2DB"/>
<path d="M46.0337 39.7869C48.9541 39.1562 53.6921 33.3953 49.0595 28.7498C45.8202 25.5012 39.0321 26.1688 35.3358 31.9012C31.6434 37.6275 36.398 46.1495 21.565 50.4163C22.1407 50.2352 28.319 48.1753 29.6054 42.5704C30.9554 36.6897 28.2859 26.3499 40.468 23.7192C43.1389 23.1424 46.3363 23.7741 48.1781 24.5431C57.4164 28.3993 56.0975 40.692 46.0337 39.7869Z" fill="#A5F2EA"/>
<path d="M48.457 39.7377C55.0932 37.7806 55.0015 28.1312 47.01 24.7953C45.2737 24.0708 42.3341 23.4681 39.7656 23.8839C39.9941 23.8258 40.2285 23.7709 40.468 23.7191C43.1389 23.1423 46.3363 23.774 48.1781 24.5431C56.614 28.0643 56.2473 38.6196 48.457 39.7377Z" fill="#C9F7F1"/>
<path d="M55.5647 43.0776L39.9668 46.4459C38.0577 46.097 36.8126 43.6898 36.9281 39.6791C37.0566 35.2228 38.5926 32.5044 41.5056 31.3549C43.2559 30.6642 44.7918 30.9544 45.8188 31.3544C43.8958 30.8047 41.6698 31.9456 41.6356 34.3834C41.595 37.1919 43.7096 45.2011 55.5647 43.0776Z" fill="#EEEFEB"/>
</g>
<defs>
<clipPath id="clip0_48_2">
<rect width="35.993" height="35.993" fill="white" transform="translate(15.3893 22.0329) rotate(-12.1858)"/>
</clipPath>
</defs>
</svg>
